<svg width="161" height="96" viewBox="0 0 161 96" fill="none" xmlns="http://www.w3.org/2000/svg">
<path d="M149.749 58.1166V36.1113L126.029 43.2559V65.8327L149.749 58.1166Z" fill="white" stroke="black" stroke-width="2"/>
<path d="M62.5854 1.53125L4 22.3934L50.2968 32.3958L96.8793 9.53316L62.5854 1.53125Z" fill="#CD614D" stroke="black" stroke-width="2"/>
<path d="M9.14453 48.3989V23.25L49.1541 32.395V56.4008L9.14453 48.3989Z" fill="white" stroke="black" stroke-width="2"/>
<path d="M59.1561 24.3945L20.0039 57.5453L64.586 69.2624L59.1561 24.3945Z" fill="#CD614D" stroke="black" stroke-width="2"/>
<path d="M98.3078 9.81836L59.4414 22.9644L64.0139 69.5469L156.893 32.3952L98.3078 9.81836Z" fill="#CD614D" stroke="black" stroke-width="2"/>
<path d="M124.314 66.6902L128.315 29.8242L158.894 53.2584L124.314 66.6902Z" fill="#CD614D" stroke="black" stroke-width="2"/>
<path d="M91.1636 58.1166L86.0195 20.9648L128.03 28.9668L123.743 66.69L91.1636 58.1166Z" fill="#CD614D" stroke="black" stroke-width="2"/>
<path d="M44.01 1.53125L5.14355 21.8218L62.5858 1.53125H44.01Z" fill="#CD614D" stroke="black" stroke-width="2" stroke-linejoin="round"/>
<path d="M25.7197 82.9791V59.5449L64.8719 69.5473V93.553L25.7197 82.9791Z" fill="white" stroke="black" stroke-width="2"/>
<path d="M91.735 83.5503L65.1572 93.8384V69.2612L91.735 58.973M91.735 83.5503L125.457 91.838M91.735 83.5503V58.973M125.457 91.838V66.6891M125.457 91.838L156.036 80.1209V55.2578L125.457 66.6891M125.457 66.6891L91.735 58.973" stroke="black" stroke-width="2"/>
</svg>
