<svg width="136" height="70" viewBox="0 0 136 70" fill="none" xmlns="http://www.w3.org/2000/svg">
<path d="M3 38.1473L37.631 9.76908L61.9208 1.11133L102.083 7.84514L133.588 32.3754L98.9568 46.0835L66.9712 38.1473L40.5169 47.767C41.4789 48.1518 15.9065 41.5142 3 38.1473Z" fill="#CD614D"/>
<path d="M37.631 9.76908L3 38.1473C15.9065 41.5142 41.4789 48.1518 40.5169 47.767M37.631 9.76908C38.1922 22.2747 39.555 47.3822 40.5169 47.767M37.631 9.76908L61.9208 1.11133M40.5169 47.767L66.9712 38.1473M61.9208 1.11133L66.9712 38.1473M61.9208 1.11133L102.083 7.84514M66.9712 38.1473L98.9568 46.0835M102.083 7.84514L98.9568 46.0835M102.083 7.84514L133.588 32.3754L98.9568 46.0835" stroke="black" stroke-width="2"/>
<path d="M41.9595 68.6904V45.8435L66.9708 38.6287L100.399 45.8435V68.6904L66.9708 59.7921L41.9595 68.6904Z" fill="white"/>
<path d="M8.77148 39.8312V59.7921L41.9595 68.6904M41.9595 68.6904V45.8435L66.9708 38.6287M41.9595 68.6904L66.9708 59.7921M66.9708 59.7921V38.6287M66.9708 59.7921L100.399 68.6904M66.9708 38.6287L100.399 45.8435V68.6904M100.399 68.6904L129.74 55.9442V33.3379" stroke="black" stroke-width="2"/>
</svg>
