<svg width="140" height="76" viewBox="0 0 140 76" fill="none" xmlns="http://www.w3.org/2000/svg">
<path d="M13.4697 63.6768V31.6656L49.264 30.2105L111.831 5.76562V43.015L49.264 73.5711L13.4697 63.6768Z" fill="white"/>
<path d="M49.264 73.5711L13.4697 63.6768V31.6656L49.264 30.2105M49.264 73.5711V30.2105M49.264 73.5711L111.831 43.015V5.76562L49.264 30.2105" stroke="black" stroke-width="2"/>
<path d="M63.8145 67.7514V34.5762L88.5504 48.5447L129.001 36.9043V59.0211L88.5504 74.1536L63.8145 67.7514Z" fill="white"/>
<path d="M88.5504 74.1536L63.8145 67.7514V34.5762L88.5504 48.5447M88.5504 74.1536V48.5447M88.5504 74.1536L129.001 59.0211V36.9043L88.5504 48.5447" stroke="black" stroke-width="2"/>
<path d="M75.1638 3.14645L1.24707 31.9565L46.0627 30.5015L120.561 1.10938L75.1638 3.14645Z" fill="#CD614D"/>
<path d="M106.302 14.4959L61.4863 31.9565L93.2065 50.2902L136.858 33.4116L106.302 14.4959Z" fill="#CD614D"/>
<path d="M75.1638 3.14645L1.24707 31.9565L46.0627 30.5015L120.561 1.10938L75.1638 3.14645Z" stroke="black" stroke-width="2"/>
<path d="M106.302 14.4959L61.4863 31.9565L93.2065 50.2902L136.858 33.4116L106.302 14.4959Z" stroke="black" stroke-width="2"/>
</svg>
