<svg width="133" height="168" viewBox="0 0 133 168" fill="none" xmlns="http://www.w3.org/2000/svg">
<path d="M6 113.483L57.5 127L130 99" stroke="#BDBDBD"/>
<path d="M6 100L57.5 114L130 85" stroke="#BDBDBD"/>
<path d="M6 86L57.5 100L130 71" stroke="#BDBDBD"/>
<path d="M6 127L57.2065 141L130 113" stroke="#BDBDBD"/>
<path d="M6 140.5L57.2065 155L130 126" stroke="#BDBDBD"/>
<path d="M6 72.4828L57.5 86L130 58" stroke="#BDBDBD"/>
<path d="M6 58.4828L57.5 72L130 44" stroke="#BDBDBD"/>
<path d="M6 45L57.5 59L130 30" stroke="#BDBDBD"/>
<path d="M57.5 166L5 151V27L57.5 40.5M57.5 166V40.5M57.5 166L129.5 136.5V12L57.5 40.5" stroke="black" stroke-width="2"/>
<path d="M1 31V26L132.5 12V15.5L56 45.5L1 31Z" fill="#C4C4C4" stroke="black"/>
<path d="M56 40.5L3.5 26L69.5 2L128.5 11.5L56 40.5Z" fill="black" stroke="black" stroke-width="2"/>
</svg>
