<svg width="136" height="105" viewBox="0 0 136 105" fill="none" xmlns="http://www.w3.org/2000/svg">
<path d="M2 58.4616L17.7526 30.5491L19.1344 30.2037L52.2977 14.7966L78.5519 7.33483L98.1735 1.53125L40.6905 25.2983L23.2798 29.1673L11.3963 58.4616H2Z" fill="#CD614D"/>
<path d="M23.2798 29.1673L17.7526 30.5491L2 58.4616H11.3963L23.2798 29.1673ZM23.2798 29.1673L40.6905 25.2983L98.1735 1.53125L78.5519 7.33483L52.2977 14.7966L19.1344 30.2037L23.2798 29.1673Z" stroke="black" stroke-width="2"/>
<path d="M22.7272 29.997L39.8616 25.2988L60.3123 42.9859L73.5776 78.3601V103.785L8.35645 86.0982L10.0146 51.2767L22.7272 29.997Z" fill="white"/>
<path d="M73.5776 103.785L8.35645 86.0982L10.0146 51.2767L22.7272 29.997L39.8616 25.2988L60.3123 42.9859L73.5776 78.3601V103.785ZM73.5776 103.785L127.744 81.9528V58.1858" stroke="black" stroke-width="2"/>
<path d="M40.6904 25.2983L98.1735 2.08398L118.901 19.4947L133.824 55.4216L74.9592 78.3596L60.312 42.1563L40.6904 25.2983Z" fill="#CD614D"/>
<path d="M118.901 19.4947L98.1735 2.08398L40.6904 25.2983L60.312 42.1563M118.901 19.4947L60.312 42.1563M118.901 19.4947L133.824 55.4216L74.9592 78.3596L60.312 42.1563" stroke="black" stroke-width="2"/>
</svg>
