<svg width="130" height="84" viewBox="0 0 130 84" fill="none" xmlns="http://www.w3.org/2000/svg">
<path d="M8.02637 72.305V47.0284L24.2566 30L44.2118 59.2676V80.2871L8.02637 72.305Z" stroke="black" stroke-width="2" stroke-linecap="round" stroke-linejoin="bevel"/>
<path d="M44.4557 80.2561L43.4557 80.2678L44.7488 81.2121L44.4557 80.2561ZM44.2119 59.5352L43.9081 58.5824L43.2033 58.8072L43.212 59.5469L44.2119 59.5352ZM62.5707 53.6816H63.5707V52.3132L62.2669 52.7289L62.5707 53.6816ZM62.5707 74.7011L62.8639 75.6572L63.5707 75.4404V74.7011H62.5707ZM45.4556 80.2443L45.2118 59.5234L43.212 59.5469L43.4557 80.2678L45.4556 80.2443ZM44.5157 60.4879L62.8745 54.6344L62.2669 52.7289L43.9081 58.5824L44.5157 60.4879ZM61.5707 53.6816V74.7011H63.5707V53.6816H61.5707ZM62.2775 73.745L44.1625 79.3L44.7488 81.2121L62.8639 75.6572L62.2775 73.745Z" fill="black"/>
<path d="M96.096 82.4166L63.2882 74.6985L62.5713 53.6811L96.096 61.131L125.364 50.4883V71.7738L96.096 82.4166Z" fill="#F0F0F0"/>
<path d="M96.096 61.131V82.4166M96.096 61.131L62.5713 53.6811L63.2882 74.6985L96.096 82.4166M96.096 61.131L125.364 50.4883V71.7738L96.096 82.4166" stroke="black" stroke-width="2" stroke-linecap="round"/>
<path d="M44.7441 59.0022L23.7246 28.4042L98.7561 1.53125L121.106 31.8631L44.7441 59.0022Z" fill="#CD614D" stroke="black" stroke-width="2"/>
<path d="M62.3048 53.1479L59.2744 17.584L97.4259 23.8803L93.701 61.13L62.3048 53.1479Z" fill="#CD614D" stroke="black" stroke-width="2"/>
<path d="M98.1734 24.0684L128.29 48.3599L94.4688 59.8801L98.1734 24.0684Z" fill="#CD614D" stroke="black" stroke-width="2" stroke-linejoin="round"/>
<path d="M21.0491 27.2088L2.08974 48.5417L2.70273 54.121L24.6246 29.3826L21.0491 27.2088Z" fill="black"/>
</svg>
