<svg width="112" height="75" viewBox="0 0 112 75" fill="none" xmlns="http://www.w3.org/2000/svg">
<path d="M44.2072 48.6599V73.7632L103.65 52.2122V27.3457L44.2072 48.6599Z" fill="white"/>
<path d="M8.20996 42.5025V65.948L44.2072 73.7632M44.2072 73.7632V48.6599L103.65 27.3457V52.2122L44.2072 73.7632Z" stroke="black" stroke-width="2"/>
<path d="M43.5656 48.9844L40 10.5918L65.5 1.5918L108 27.5918L43.5656 48.9844Z" fill="#CD614D"/>
<path d="M43.4969 50.7907L3 41.5545L39.9446 10.5306L66.2321 1.53125L109.134 27.2993L43.4969 50.7907Z" fill="#CD614D"/>
<path d="M39.9446 10.5306L43.4969 50.7907M39.9446 10.5306L3 41.5545L43.4969 50.7907M39.9446 10.5306L66.2321 1.53125L109.134 27.2993L43.4969 50.7907" stroke="black" stroke-width="2"/>
</svg>
