<svg width="139" height="106" viewBox="0 0 139 106" fill="none" xmlns="http://www.w3.org/2000/svg">
<path d="M65.904 34.3022L47.5703 15.6775L81.0365 2L118.286 15.6775L136.038 52.6359L75.5073 75.0437L65.904 34.3022Z" fill="#F0F0F0" stroke="black"/>
<path d="M1.00879 56.4192L23.1256 24.117L67.3592 35.4665L120.032 15.3867L137.202 53.5091L75.7985 76.79L1.00879 56.4192Z" fill="#CD614D"/>
<path d="M67.3592 35.4665L23.1256 24.117L1.00879 56.4192L75.7985 76.79M67.3592 35.4665L75.7985 76.79M67.3592 35.4665L120.032 15.3867L137.202 53.5091L75.7985 76.79" stroke="black" stroke-width="2" stroke-linejoin="bevel"/>
<path d="M23.707 24.117L49.898 15.6777L67.3586 35.1755" stroke="black" stroke-width="2"/>
<path d="M82.6943 2L117.907 15.0955L66.1067 34.8842L48.355 15.0955L23.5 24L43.1168 15.0955L74.837 2.58202L82.6943 2Z" fill="#CD614D"/>
<path d="M82.6943 2L83.0429 1.06272L82.8382 0.986601L82.6204 1.00273L82.6943 2ZM117.907 15.0955L118.263 16.0296L118.255 14.1582L117.907 15.0955ZM66.1067 34.8842L65.3623 35.552L65.8213 36.0637L66.4635 35.8184L66.1067 34.8842ZM23.5 24L23.0867 23.0894L23.8373 24.9414L23.5 24ZM43.1168 15.0955L42.7498 14.1653L42.7264 14.1745L42.7035 14.1849L43.1168 15.0955ZM74.837 2.58202L74.7631 1.58475L74.6115 1.59599L74.47 1.65179L74.837 2.58202ZM48.7113 16.0298L83.0506 2.93436L82.338 1.06564L47.9987 14.1611L48.7113 16.0298ZM82.3457 2.93728L117.558 16.0328L118.255 14.1582L83.0429 1.06272L82.3457 2.93728ZM117.55 14.1613L65.7498 33.9501L66.4635 35.8184L118.263 16.0296L117.55 14.1613ZM66.851 34.2165L49.0994 14.4277L47.6106 15.7632L65.3623 35.552L66.851 34.2165ZM23.9133 24.9106L43.5301 16.0061L42.7035 14.1849L23.0867 23.0894L23.9133 24.9106ZM43.4838 16.0257L75.204 3.51225L74.47 1.65179L42.7498 14.1653L43.4838 16.0257ZM74.9109 3.57929L82.7681 2.99727L82.6204 1.00273L74.7631 1.58475L74.9109 3.57929ZM48.0177 14.1541L23.1627 23.0586L23.8373 24.9414L48.6923 16.0369L48.0177 14.1541Z" fill="black"/>
<path d="M6.24707 58.166V85.812L74.3436 104.146V76.4997" stroke="black" stroke-width="2"/>
<path d="M131.673 82.6109V56.1289L74.9258 76.4997V104.146L131.673 82.6109Z" stroke="black" stroke-width="2"/>
<path d="M64 34L26 24L49 17L64 34Z" fill="#CD614D"/>
</svg>
