<svg width="107" height="76" viewBox="0 0 107 76" fill="none" xmlns="http://www.w3.org/2000/svg">
<path d="M44.985 52.7717V74.7129L99.0724 54.8128V33.1268L44.985 52.7717Z" fill="white"/>
<path d="M44.985 74.7129L6.9707 65.2731V38.7396L17.431 28.2793M44.985 74.7129V52.7717L99.0724 33.1268V54.8128L44.985 74.7129Z" stroke="black" stroke-width="2"/>
<path d="M14.88 28.7886L29.1673 17.818L72.5393 2L90.3983 10.6744L104.686 31.3399L46.5161 52.5156L32.2288 33.8912L14.88 28.7886C10.2877 32.8707 1.9195 41.1369 1.10308 41.5451L4.60219 40.3787C5.49551 40.0691 6.42558 39.7542 7.22612 39.504L4.60219 40.3787C2.45875 41.1214 0.526834 41.8332 1.10308 41.5451C1.9195 41.1369 10.2877 32.8707 14.88 28.7886Z" fill="#CD614D"/>
<path d="M29.1673 17.818L14.88 28.7886M29.1673 17.818L32.2288 33.8912M29.1673 17.818L72.5393 2L90.3983 10.6744L104.686 31.3399L46.5161 52.5156L32.2288 33.8912M14.88 28.7886L32.2288 33.8912M14.88 28.7886C10.2877 32.8707 1.9195 41.1369 1.10308 41.5451M7.22612 39.504C4.50474 40.3545 0.28667 41.9533 1.10308 41.5451M7.22612 39.504L1.10308 41.5451M7.22612 39.504L17.4314 30.0642" stroke="black" stroke-width="2"/>
</svg>
